<svg width="24" height="32" viewBox="0 0 24 32" fill="none" xmlns="http://www.w3.org/2000/svg">
<path d="M19.4279 6.85724C19.5408 6.85722 19.6511 6.89062 19.745 6.95324L20.5708 7.50353V4.57153H18.2851V7.50353L19.1108 6.95324C19.2047 6.89062 19.315 6.85722 19.4279 6.85724Z" fill="#B1BEDA"/>
<path d="M7.99959 6.85714C9.89313 6.85714 11.4282 5.32212 11.4282 3.42857C11.4282 1.53502 9.89313 0 7.99959 0C6.10604 0 4.57101 1.53502 4.57101 3.42857C4.57101 5.32212 6.10604 6.85714 7.99959 6.85714Z" fill="#B1BEDA"/>
<path d="M24 13.7144V4.57153H21.7143V8.57153C21.7143 8.78233 21.5983 8.97602 21.4124 9.07546C21.2266 9.17491 21.001 9.16395 20.8257 9.04696L19.4285 8.11439L18.0314 9.04582C17.8562 9.1627 17.631 9.17375 17.4452 9.07459C17.2594 8.97543 17.1432 8.78212 17.1428 8.57153V4.57153H14.8571V13.7144H24Z" fill="#B1BEDA"/>
<path d="M0.441781 31.7603C0.945732 32.1272 1.64817 32.0385 2.04521 31.558L6.04521 26.4151C6.14093 26.2897 6.21049 26.1463 6.24978 25.9934L7.10692 22.5569L5.26407 20.5083L4.1195 25.0854C4.10046 25.1626 4.0652 25.2349 4.01607 25.2974L0.238924 30.1546C0.053023 30.3941 -0.0300486 30.6978 0.00799832 30.9986C0.0460453 31.2994 0.202091 31.5728 0.441781 31.7586V31.7603Z" fill="#B1BEDA"/>
<path d="M9.01938 10.7234C8.98139 10.6458 8.93272 10.5739 8.87481 10.5097C8.85264 10.4791 8.8335 10.4463 8.81766 10.412C8.80111 10.3889 8.78658 10.3644 8.77423 10.3389C8.75291 10.2819 8.74113 10.2219 8.73938 10.1611C8.73938 10.1509 8.73309 10.1417 8.73309 10.1314V10.1251L8.91652 7.90743C8.15701 8.06282 7.37045 8.02251 6.6308 7.79028L6.34509 11.2411L5.72794 18.6217L5.71651 18.7589C5.69075 19.0747 5.79663 19.3872 6.00909 19.6223L10.7091 24.8417C10.8037 24.9468 10.8561 25.0832 10.856 25.2246V30.8571C10.856 31.4883 11.3676 32 11.9988 32C12.63 32 13.1417 31.4883 13.1417 30.8571V24.5714C13.1433 24.2893 13.0394 24.0168 12.8502 23.8074L8.23823 18.6857L8.19652 18.6377C8.0959 18.5213 8.04646 18.3693 8.05938 18.216L8.32109 15.0806L7.5428 14.06C7.35266 13.8075 7.40319 13.4487 7.65566 13.2586C7.90813 13.0684 8.26695 13.119 8.45709 13.3714L9.35824 14.556L10.9062 16.4C10.9354 16.4349 10.9601 16.4733 10.98 16.5143C11.1726 16.9008 11.568 17.1445 12 17.1429H20C20.6312 17.1429 21.1428 16.6312 21.1428 16C21.1428 15.3688 20.6312 14.8571 20 14.8571H13.0571C12.8976 14.8573 12.7454 14.7908 12.6371 14.6737L9.11138 10.8571C9.07487 10.8169 9.04393 10.7719 9.01938 10.7234Z" fill="#B1BEDA"/>
</svg>
