<svg width="50" height="50" viewBox="0 0 50 50" fill="none" xmlns="http://www.w3.org/2000/svg">
<path d="M22.4138 37.5002H39.6551V35.7761H31.0344H22.4138V37.5002Z" fill="white"/>
<path d="M5.55602 30.7481C5.84571 30.5548 6.22323 30.5548 6.51291 30.7481L7.7586 31.5783V28.8792H4.31033V31.5783L5.55602 30.7481Z" fill="white"/>
<path d="M27.5862 30.6038H22.4138V34.0521H30.1724V33.19C30.1724 31.7617 29.0145 30.6038 27.5862 30.6038Z" fill="white"/>
<path d="M39.6552 28.0172C39.6502 25.4931 41.4753 23.3373 43.9656 22.9258V20.2586C43.9627 17.4031 41.6486 15.089 38.7932 15.0862H31.8966V21.9827C31.8966 22.4588 31.5107 22.8448 31.0346 22.8448C30.5584 22.8448 30.1725 22.4588 30.1725 21.9827V15.0862H23.2759C20.4205 15.089 18.1064 17.4031 18.1035 20.2586V22.9215C20.6244 23.4156 22.4357 25.6355 22.4139 28.2043V28.8793H27.5863C28.9483 28.8831 30.2278 29.5327 31.0346 30.6301C31.8413 29.5327 33.1208 28.8831 34.4828 28.8793H39.6552V28.0172ZM25.0001 21.1207C25.0001 21.5968 24.6141 21.9827 24.138 21.9827C23.6619 21.9827 23.2759 21.5968 23.2759 21.1207V20.2586C23.2759 19.7825 23.6619 19.3965 24.138 19.3965C24.6141 19.3965 25.0001 19.7825 25.0001 20.2586V21.1207ZM38.7932 21.1207C38.7932 21.5968 38.4072 21.9827 37.9311 21.9827C37.455 21.9827 37.069 21.5968 37.069 21.1207V20.2586C37.069 19.7825 37.455 19.3965 37.9311 19.3965C38.4072 19.3965 38.7932 19.7825 38.7932 20.2586V21.1207Z" fill="white"/>
<path d="M39.6552 30.6038H34.4828C33.0544 30.6038 31.8965 31.7617 31.8965 33.19V34.0521H39.6552V30.6038Z" fill="white"/>
<path d="M25 40.9483H20.6897V28.2043C20.7276 26.3834 19.3915 24.8246 17.5862 24.5836C17.4716 24.5728 17.3565 24.5679 17.2414 24.569C16.3847 24.5662 15.5584 24.886 14.9267 25.4647C13.9653 26.3377 13.5758 27.6768 13.9191 28.9293C14.2625 30.1817 15.2804 31.135 16.5526 31.3957C16.9543 31.4777 17.2427 31.8314 17.2422 32.2414V40.9483H15.5172V32.8957C14.879 32.6651 14.2929 32.3099 13.7931 31.8509V40.9483H12.069V28.8793H9.48276V33.1897C9.48281 33.5077 9.30778 33.7999 9.02738 33.9499C8.74699 34.0999 8.40677 34.0834 8.14224 33.9069L6.03448 32.5L3.92672 33.9052C3.66245 34.0815 3.32261 34.0982 3.04234 33.9486C2.76207 33.799 2.58679 33.5074 2.58621 33.1897V28.8793H0V41.8104C0 42.2865 0.385961 42.6724 0.862069 42.6724H25C25.4761 42.6724 25.8621 42.2865 25.8621 41.8104C25.8621 41.3343 25.4761 40.9483 25 40.9483ZM18.1034 28.8793C18.1034 29.3554 17.7175 29.7414 17.2414 29.7414C16.7653 29.7414 16.3793 29.3554 16.3793 28.8793V28.0173C16.3793 27.5412 16.7653 27.1552 17.2414 27.1552C17.7175 27.1552 18.1034 27.5412 18.1034 28.0173V28.8793Z" fill="white"/>
<path d="M49.1379 40.9484H44.8276V32.2415C44.8271 31.8315 45.1155 31.4778 45.5172 31.3958C47.1149 31.0737 48.2688 29.677 48.2838 28.0473C48.2988 26.4175 47.1707 24.9999 45.5793 24.6484C45.3321 24.5964 45.0802 24.5699 44.8276 24.5691H44.8198C44.0308 24.5672 43.2658 24.84 42.656 25.3407C41.8476 25.994 41.3782 26.978 41.3793 28.0174V40.9484H37.0689C36.5928 40.9484 36.2069 41.3344 36.2069 41.8105C36.2069 42.2866 36.5928 42.6726 37.0689 42.6726H49.1379C49.614 42.6726 50 42.2866 50 41.8105C50 41.3344 49.614 40.9484 49.1379 40.9484ZM43.9655 28.8795V28.0174C43.9655 27.5413 44.3514 27.1553 44.8276 27.1553C45.3037 27.1553 45.6896 27.5413 45.6896 28.0174V28.8795C45.6896 29.3556 45.3037 29.7415 44.8276 29.7415C44.3514 29.7415 43.9655 29.3556 43.9655 28.8795Z" fill="white"/>
<path d="M2.03526 15.9483H5.17233V25.4311H2.58612V27.1552H9.48268V25.4311H6.89647V15.9483H8.62061V20.2587C8.62061 20.7348 9.00657 21.1207 9.48268 21.1207C9.95878 21.1207 10.3447 20.7348 10.3447 20.2587V15.8785C10.7235 15.735 10.9488 15.3446 10.8835 14.9449L9.7344 8.04833C9.66529 7.63264 9.30579 7.32783 8.8844 7.32764H3.1844C2.76301 7.32783 2.40351 7.63264 2.3344 8.04833L1.18526 14.9449C1.14373 15.1947 1.21416 15.4502 1.37787 15.6435C1.54157 15.8367 1.78199 15.9482 2.03526 15.9483Z" fill="white"/>
</svg>
