<svg width="28" height="24" viewBox="0 0 28 24" fill="none" xmlns="http://www.w3.org/2000/svg">
<path fill-rule="evenodd" clip-rule="evenodd" d="M6.47566 14.1085C6.5322 14.1275 6.58927 14.1411 6.64628 14.1494C6.70846 14.2955 6.78879 14.4845 6.88251 14.7055C7.11123 15.245 7.41941 15.9745 7.73752 16.7356C8.38625 18.2878 9.04063 19.8878 9.18515 20.3458C9.36406 20.912 9.55317 21.2969 9.75963 21.5597C9.86637 21.6956 9.98983 21.8142 10.1343 21.9041C10.207 21.9493 10.2838 21.9864 10.364 22.014C10.3676 22.0153 10.3711 22.0165 10.3746 22.0176C10.788 22.1737 11.1648 22.1086 11.4008 22.0292C11.527 21.9867 11.6292 21.9353 11.7016 21.8937C11.7385 21.8725 11.7697 21.8526 11.7945 21.8359L11.8004 21.832L15.4509 19.5554L19.6676 22.7882C19.7299 22.836 19.7977 22.8759 19.8696 22.9073C20.3761 23.1284 20.8667 23.2055 21.3282 23.1424C21.7888 23.0795 22.1546 22.886 22.4268 22.6682C22.6934 22.4548 22.8742 22.216 22.9867 22.0384C23.0442 21.9478 23.0874 21.8676 23.1178 21.8062C23.1331 21.7753 23.1454 21.7487 23.1549 21.7273L23.1671 21.6992L23.1717 21.6881L23.1736 21.6834L23.1745 21.6813L23.1753 21.6792C23.1974 21.6238 23.2144 21.5665 23.226 21.508L27.0755 2.10004C27.0878 2.03797 27.094 1.97485 27.094 1.91157C27.094 1.34322 26.8799 0.802782 26.3763 0.474836C25.9459 0.194548 25.4665 0.182483 25.1635 0.205481C24.8367 0.230289 24.5348 0.310977 24.3322 0.375452C24.2268 0.409006 24.1384 0.44138 24.0747 0.466078C24.0427 0.478491 24.0164 0.489141 23.9969 0.497263L23.9822 0.503446L2.39363 8.97232L2.39083 8.97332C2.37707 8.97833 2.35941 8.98492 2.33842 8.99309C2.29661 9.00936 2.2406 9.0323 2.17518 9.06195C2.04758 9.11978 1.86858 9.21016 1.6849 9.33594C1.39145 9.5369 0.716562 10.0873 0.830205 10.9957C0.920865 11.7204 1.41736 12.1655 1.71985 12.3796C1.88595 12.4971 2.04375 12.5811 2.15867 12.6358C2.21198 12.6612 2.32267 12.7062 2.3707 12.7257L2.38282 12.7306L6.47566 14.1085ZM24.7377 2.28749L24.7347 2.2888C24.724 2.29348 24.7131 2.29796 24.7022 2.30224L3.08744 10.7814C3.07616 10.7858 3.06479 10.79 3.05334 10.794L3.04131 10.7986C3.02749 10.804 3.0042 10.8134 2.97498 10.8267C2.95842 10.8342 2.94112 10.8424 2.9235 10.8512C2.94771 10.8648 2.9709 10.8767 2.9915 10.8865C3.01127 10.8959 3.02635 10.9023 3.03461 10.9057L7.09384 12.2723C7.16814 12.2973 7.2374 12.3304 7.30098 12.3704L20.7043 4.52416L20.7168 4.51675C20.7266 4.51098 20.7394 4.50356 20.7548 4.49487C20.7853 4.47763 20.8272 4.45467 20.8771 4.4293C20.9701 4.38195 21.1189 4.31167 21.2866 4.25985C21.4033 4.22377 21.7475 4.12214 22.1197 4.24149C22.3493 4.31516 22.5871 4.47353 22.7418 4.74182C22.8186 4.8751 22.8596 5.00899 22.8794 5.13156C22.932 5.32464 22.9237 5.5153 22.8825 5.6799C22.7937 6.03447 22.5446 6.31105 22.3179 6.52259C22.1237 6.70396 19.6109 9.12694 17.132 11.5188C15.8958 12.7116 14.6722 13.8926 13.7577 14.7754L13.157 15.3553L20.7415 21.1702C20.9155 21.2325 21.0183 21.2293 21.0659 21.2228C21.1226 21.215 21.169 21.1932 21.2164 21.1553C21.2694 21.1129 21.3157 21.0556 21.3504 21.001L21.3518 20.9988L25.0853 2.17532C25.0299 2.18864 24.9739 2.20449 24.9199 2.22168C24.8587 2.24115 24.8083 2.25969 24.7749 2.27265C24.7583 2.27907 24.7464 2.28393 24.7399 2.28662L24.7377 2.28749ZM13.8086 18.2963L12.2954 17.1362L11.9287 19.4686L13.8086 18.2963ZM10.9073 14.8342L12.412 13.3815C13.3266 12.4986 14.5503 11.3174 15.7867 10.1245L17.0428 8.91263L8.62111 13.8426L8.6663 13.9492C8.89583 14.4905 9.20538 15.2233 9.52517 15.9885C9.7643 16.5606 10.0143 17.1631 10.2421 17.7208L10.6077 15.3953C10.6429 15.1711 10.7525 14.977 10.9073 14.8342Z" fill="#5A5A5A"/>
</svg>
