<svg width="27" height="27" viewBox="0 0 27 27" fill="none" xmlns="http://www.w3.org/2000/svg">
<path d="M9.39436 7.26122C9.63068 7.26755 9.89268 7.28033 10.142 7.83366C10.3073 8.20201 10.5857 8.88014 10.8125 9.43254C10.9891 9.86239 11.1343 10.2161 11.1706 10.2885C11.2537 10.4538 11.3048 10.6446 11.1962 10.8672C11.1834 10.8934 11.1713 10.9185 11.1597 10.9427C11.0725 11.1235 11.0105 11.2522 10.864 11.4205C10.8037 11.4897 10.741 11.5655 10.6784 11.6411C10.5685 11.7739 10.4592 11.906 10.3656 11.9993C10.1994 12.1645 10.0269 12.3427 10.2185 12.6734C10.4103 13.004 11.0812 14.0916 12.0716 14.9692C13.1364 15.9172 14.0623 16.3167 14.5303 16.5186C14.6212 16.5578 14.6948 16.5896 14.7488 16.6164C15.0811 16.7818 15.2792 16.7563 15.4708 16.5338C15.6626 16.3111 16.3015 15.567 16.5252 15.2363C16.7424 14.9057 16.966 14.9566 17.2728 15.071C17.5794 15.1855 19.2152 15.9868 19.5474 16.1521C19.6131 16.1848 19.6745 16.2143 19.7314 16.2416C19.9626 16.3524 20.1197 16.4278 20.1864 16.5401C20.2694 16.68 20.2694 17.3414 19.9947 18.1173C19.7136 18.8932 18.359 19.6373 17.7456 19.6945C17.6875 19.7 17.6297 19.707 17.5702 19.7142C17.0081 19.7822 16.2944 19.8685 13.752 18.8677C10.6192 17.6358 8.55125 14.5792 8.13315 13.9612C8.10014 13.9125 8.07742 13.8789 8.06527 13.8626L8.05819 13.8531C7.86797 13.5986 6.70425 12.0414 6.70425 10.4348C6.70425 8.89772 7.46145 8.09746 7.80683 7.73244C7.82871 7.70931 7.84895 7.68793 7.86723 7.66821C8.17388 7.33755 8.53178 7.25489 8.75537 7.25489C8.97908 7.25489 9.20268 7.25489 9.39436 7.26122Z" fill="#5A5A5A"/>
<path fill-rule="evenodd" clip-rule="evenodd" d="M0.737905 25.5533C0.632224 25.9369 0.981606 26.2909 1.36658 26.1904L7.31773 24.636C9.19627 25.6535 11.3113 26.1941 13.4646 26.1941H13.471C20.5571 26.1941 26.3334 20.4512 26.3334 13.392C26.3334 9.97048 24.9978 6.75242 22.5698 4.33567C20.1418 1.91903 16.915 0.583496 13.4709 0.583496C6.38493 0.583496 0.608643 6.32631 0.608643 13.3857C0.607838 15.6314 1.20061 17.8378 2.32744 19.7835L0.737905 25.5533ZM4.19535 20.2981C4.33333 19.7972 4.2644 19.262 4.00405 18.8124C3.04802 17.1617 2.54546 15.2898 2.54614 13.3857C2.54614 7.40554 7.44578 2.521 13.4709 2.521C16.4028 2.521 19.1382 3.65377 21.203 5.7089C23.2654 7.76176 24.3959 10.4856 24.3959 13.392C24.3959 19.372 19.4962 24.2566 13.471 24.2566H13.4646C11.635 24.2566 9.83698 23.7971 8.24053 22.9323C7.80843 22.6983 7.30355 22.6372 6.82809 22.7614L3.25998 23.6933L4.19535 20.2981Z" fill="#5A5A5A"/>
</svg>
